<?xml version="1.0" encoding="utf-8"?>
<!-- Generator: Adobe Illustrator 18.0.0, SVG Export Plug-In . SVG Version: 6.00 Build 0)  -->
<!DOCTYPE svg PUBLIC "-//W3C//DTD SVG 1.1//EN" "http://www.w3.org/Graphics/SVG/1.1/DTD/svg11.dtd">
<svg version="1.1" id="Layer_1" xmlns="http://www.w3.org/2000/svg" xmlns:xlink="http://www.w3.org/1999/xlink" x="0px" y="0px"
	 viewBox="0 0 1299.9 266.1" enable-background="new 0 0 1299.9 266.1" xml:space="preserve">
<g>
	<g>
		<path fill="#FFFFFF" d="M125.8,226.9c-52.7,0-95.5-42.8-95.5-95.5s42.8-95.5,95.5-95.5s95.5,42.8,95.5,95.5
			S178.4,226.9,125.8,226.9z M125.8,43.6c-48.4,0-87.8,39.4-87.8,87.8s39.4,87.8,87.8,87.8s87.8-39.4,87.8-87.8
			S174.2,43.6,125.8,43.6z"/>
	</g>
	<path fill="#FFFFFF" d="M97.8,152c-1.2,0-2.4-0.6-3.1-1.6l-19.4-27.2v25c0,2.1-1.7,3.8-3.8,3.8s-3.8-1.7-3.8-3.8v-37
		c0-1.7,1.1-3.1,2.7-3.6c1.6-0.5,3.3,0.1,4.3,1.4L94,136.2v-25c0-2.1,1.7-3.8,3.8-3.8s3.8,1.7,3.8,3.8v37c0,1.7-1.1,3.1-2.7,3.6
		C98.6,152,98.2,152,97.8,152z"/>
	<g>
		<path fill="#FFFFFF" d="M177.9,117.5c-3.8-2.3-7.9-3.8-12.4-3.4c-3.2,0.2-8,2.1-7.9,5.2c0.1,2.9,2.6,4.1,5.1,4.9
			c3.7,1.2,7.7,1.6,11.4,2.9c6,2.2,11.8,6.9,10.9,13.9c-1,7.8-9,11.2-16,11.6c-6.5,0.3-14-2.1-18.8-6.7c-2.1-2-1.4-5.7,1.8-6
			c1.4-0.1,2.4,0.8,3.5,1.5c1.6,1,3.2,1.9,5,2.6c3.7,1.4,7.6,1.8,11.5,0.7c2.7-0.7,6.6-3,5.2-6.4c-1.3-3.1-6.3-4.2-9.2-4.9
			c-3.9-0.9-7.9-1.5-11.5-3.5c-5.5-3-8.2-9.4-5.5-15.2c3.4-7.3,13.1-8.9,20.3-7.5c3.6,0.7,7.5,2.3,10.4,4.7
			C184.8,114.6,181.5,119.8,177.9,117.5z"/>
	</g>
	<path fill="#FFFFFF" d="M125.8,175.6c-1.2,0-2.2-1-2.2-2.2V89.4c0-1.2,1-2.2,2.2-2.2c1.2,0,2.1,1,2.1,2.2v84.1
		C127.9,174.6,126.9,175.6,125.8,175.6z"/>
	<path fill="#FFFFFF" d="M347.9,177.4c-1.9,0-3.7-0.8-4.9-2.4l-51.6-65.4v61.5c0,3.4-2.8,6.2-6.2,6.2c-3.4,0-6.2-2.8-6.2-6.2V91.7
		c0-2.7,1.7-5,4.2-5.9c2.5-0.9,5.3-0.1,6.9,2l51.6,65.4V91.7c0-3.4,2.8-6.2,6.2-6.2c3.4,0,6.2,2.8,6.2,6.2v79.5c0,2.7-1.7,5-4.2,5.9
		C349.3,177.3,348.6,177.4,347.9,177.4z M463.4,131.4c0-26.3-20.3-47.7-45.3-47.7s-45.3,21.4-45.3,47.7s20.3,47.7,45.3,47.7
		S463.4,157.7,463.4,131.4z M451,131.4c0,19.4-14.7,35.2-32.8,35.2s-32.8-15.8-32.8-35.2c0-19.4,14.7-35.2,32.8-35.2
		S451,112,451,131.4z M829.8,131.4c0-26.3-20.3-47.7-45.3-47.7c-25,0-45.3,21.4-45.3,47.7s20.3,47.7,45.3,47.7
		C809.5,179.1,829.8,157.7,829.8,131.4z M817.3,131.4c0,19.4-14.7,35.2-32.8,35.2s-32.8-15.8-32.8-35.2c0-19.4,14.7-35.2,32.8-35.2
		S817.3,112,817.3,131.4z M922.7,140.2V91.7c0-3.4-2.8-6.2-6.2-6.2c-3.4,0-6.2,2.8-6.2,6.2v48.6c0,14.6-11.4,26.4-25.4,26.4
		c-14,0-25.4-11.8-25.4-26.4V91.7c0-3.4-2.8-6.2-6.2-6.2s-6.2,2.8-6.2,6.2v48.6c0,21.4,17,38.9,37.9,38.9S922.7,161.7,922.7,140.2z
		 M713.3,103.8c3,2.1,7.3,0.8,8.5-2.6c2.4-6.5-8.6-11.3-13-13.3c-8-3.7-16.9-4.9-25.5-3.5c-13.9,2.2-26.1,12.5-24.7,27.5
		c0.8,8.8,6.5,15.4,14.1,19.3c8.1,4.1,17.1,4.8,25.6,7.6c6.7,2.2,15.6,6.6,14.9,14.9c-0.8,8.8-10.5,12.1-18,12.8
		c-8,0.7-15.5-1.6-22.4-5.4c-2.8-1.6-5.3-3.8-8.1-5.3c-3.3-1.7-7.5,0.2-8.2,4c-0.5,3,1.4,4.9,3.4,6.6c2.9,2.5,6.1,4.6,9.4,6.5
		c7,3.9,15,6.4,23.1,6.3c14.3-0.2,30.4-7,33-22.6c2.4-14.6-9.2-24.5-21.7-29c-9.9-3.6-36.3-4.4-32.3-20.7
		c2.1-8.5,12.7-10.6,20.2-10.5c4.3,0.1,8.5,1,12.6,2.6C706.8,99.9,711.1,101.5,713.3,103.8C715.8,105.6,713.3,103.8,713.3,103.8z
		 M558.1,131.4c0-22.9-16-46-51.6-46H488c-3.4,0-6.2,2.8-6.2,6.2v79.5c0,3.4,2.8,6.2,6.2,6.2h18.4
		C538.8,177.4,558.1,160.2,558.1,131.4z M494.2,97.9h12.2c23.8,0,39.2,13.1,39.2,33.5c0,21.9-13.5,33.5-39.2,33.5h-12.2V97.9z
		 M635.8,164.9H589v-27.5h32.6c3.4,0,6.2-2.8,6.2-6.2c0-3.4-2.8-6.2-6.2-6.2H589V97.9h46.8c3.4,0,6.2-2.8,6.2-6.2
		c0-3.4-2.8-6.2-6.2-6.2h-53.1c-3.4,0-6.2,2.8-6.2,6.2v79.5c0,3.4,2.8,6.2,6.2,6.2h53.1c3.4,0,6.2-2.8,6.2-6.2
		S639.3,164.9,635.8,164.9z M1192.4,164.9h-46.8v-27.5h32.6c3.4,0,6.2-2.8,6.2-6.2c0-3.4-2.8-6.2-6.2-6.2h-32.6V97.9h46.8
		c3.4,0,6.2-2.8,6.2-6.2c0-3.4-2.8-6.2-6.2-6.2h-53.1c-3.4,0-6.2,2.8-6.2,6.2v79.5c0,3.4,2.8,6.2,6.2,6.2h53.1
		c3.4,0,6.2-2.8,6.2-6.2S1195.9,164.9,1192.4,164.9z M1014.9,176.2c-1.1,0.8-2.3,1.1-3.6,1.1c-2,0-3.9-0.9-5.1-2.6l-26.3-37.3h-21.5
		v33.7c0,3.4-2.8,6.2-6.2,6.2s-6.2-2.8-6.2-6.2V91.7c0-3.4,2.8-6.2,6.2-6.2H989c16.3,0,28.1,10.9,28.1,26c0,13.2-9.1,23.2-22.3,25.5
		l21.6,30.6C1018.4,170.4,1017.7,174.2,1014.9,176.2z M958.4,124.9H989c9.4,0,15.6-5.4,15.6-13.5c0-8.1-6.3-13.5-15.6-13.5h-30.6
		V124.9z M1108.6,156c-3.5-0.8-5.7,2.1-8.2,3.9c-6.4,4.4-13.7,6.7-21.4,6.7c0.1,0,0.2,0,0.3,0c-14.1-0.3-26.9-8.2-32.5-21.3
		c-5.5-12.8-2.8-28.1,6.9-38.3c9.6-10.1,24.7-13.4,37.8-8.8c4.8,1.7,8.5,4.5,12.6,7.4c5.2,3.8,12-2.5,8-7.8
		c-6.3-8.2-18.5-12.9-28.5-13.9c-13.9-1.4-28.1,3.7-38.1,13.5c-18.9,18.6-18.7,49.7,0.3,68.2c18.4,17.8,47.4,17.5,65.6-0.1
		C1114.5,162.5,1112.9,157,1108.6,156z"/>
	<g>
		<path fill="#FFFFFF" d="M1242.1,85.5h-14.2c-0.9,0-1.5,0.7-1.5,1.5s0.7,1.5,1.5,1.5h5.6v18.2c0,0.9,0.7,1.5,1.5,1.5
			s1.5-0.7,1.5-1.5V88.5h5.6c0.9,0,1.5-0.7,1.5-1.5S1243,85.5,1242.1,85.5z"/>
		<path fill="#FFFFFF" d="M1271.5,108.3c-0.9,0-1.5-0.7-1.5-1.5V91.5l-6.9,8.8c-0.6,0.7-1.8,0.7-2.4,0l-6.9-8.8v15.3
			c0,0.9-0.7,1.5-1.5,1.5s-1.5-0.7-1.5-1.5V87c0-0.7,0.4-1.2,1-1.5c0.6-0.2,1.3,0,1.7,0.5l8.5,10.7l8.5-10.7
			c0.4-0.5,1.1-0.7,1.7-0.5c0.6,0.2,1,0.8,1,1.5v19.7C1273,107.6,1272.3,108.3,1271.5,108.3z"/>
	</g>
</g>
</svg>
